<?xml version="1.0" encoding="UTF-8"?><svg id="Layer_1" xmlns="http://www.w3.org/2000/svg" viewBox="0 0 576 576"><defs><style>.cls-1{stroke-width:.58px;}.cls-1,.cls-2,.cls-3,.cls-4,.cls-5,.cls-6{fill:none;}.cls-1,.cls-2,.cls-3,.cls-4,.cls-5,.cls-6,.cls-7{stroke:#12123c;}.cls-1,.cls-2,.cls-3,.cls-4,.cls-5,.cls-7{stroke-linejoin:round;}.cls-1,.cls-2,.cls-3,.cls-4,.cls-6{stroke-linecap:round;}.cls-2{stroke-width:.67px;}.cls-3{stroke-width:.93px;}.cls-8{fill:#12103c;}.cls-9{fill:#f1e9cb;}.cls-4{stroke-width:1.69px;}.cls-10{fill:#805556;}.cls-5,.cls-7{stroke-width:1.35px;}.cls-11,.cls-7{fill:#fff;}.cls-12{fill:#f4f0c9;}.cls-6,.cls-13{stroke-miterlimit:10;stroke-width:2.7px;}.cls-13{fill:#441e1d;stroke:#230f0f;}.cls-14{fill:#e9e2c4;}.cls-15{fill:#f9f5e1;}.cls-16{fill:#f9f9ed;}</style></defs><rect class="cls-16" width="576" height="576"/><ellipse class="cls-8" cx="211.98" cy="470.8" rx="32.32" ry="7.74"/><ellipse class="cls-8" cx="312.76" cy="453.51" rx="32.32" ry="7.74"/><path class="cls-8" d="M108.21,262.94c-1.23-.54-2.26-.99-3.28-1.45-4.68-2.09-5.51-3.19-6.16-8.34-8.45-6.54-10.31-15.91-10.27-25.98-1.6-.97-3.17-1.82-4.19-3.21-4.29-5.78-5.65-12.12-3.3-19.07.24-.7.66-1.35,1.1-1.95,1.94-2.62,4.82-3.34,7.78-1.98.6.28,1.16.64,1.92,1.06.69-1.3,1.45-2.48,2.36-3.55,3.95-4.61,7.94-4.83,12.3-.64.21.2.46.38.75.61.8-.4,1.09-1.2,1.54-1.85,2.28-3.36,5.21-5.76,9.34-6.45,8.22-1.37,15.74,4.81,15.95,13.12.03,1.03-.16,2.09.09,3.02.84.76,1.5.15,2.17-.06,6.2-1.99,12.11-1.52,17.69,1.99,1.48.93,2.78,2.04,3.85,3.41,2.03,2.58,2.73,5.42,1.82,8.65-1.6,5.7-6.88,8.93-12.67,7.7-1.7-.36-3.3-.98-4.91-1.59-.91-.34-1.82-.72-2.76-.97-2.05-.54-3.72.31-4.49,2.31-.63,1.62-.93,3.32-.88,5.06.04,1.5.05,3,.15,4.5.37,5.39-1.74,9.61-5.95,12.89-.88.68-1.93,1.15-2.77,2.15,1.59,3.91-.95,6.26-3.38,8.36-.28.92.12,1.41.39,1.94,3.14,6.09,8.37,9.16,14.89,10.46,8.41,1.67,16.71.82,25-.84,8.7-1.74,17-4.84,25.4-7.57.78-.26,1.57-.51,2.36-.75.13-.04.29.03.58.07,1.19,1.54,1.46,3.51,1.77,5.39.52,3.15.12,6.27-.94,9.3-.37,1.07-1.2,1.43-2.16,1.73-6.24,1.91-12.53,3.59-18.89,5.04-5.26,1.2-10.54,2.33-15.91,2.92-9.55,1.06-18.87.21-27.76-3.7-7.93-3.49-13.52-9.27-16.77-17.3-.59-1.46-1.16-2.92-1.75-4.43ZM130.41,210.87c.84-1.51,1.64-2.92,1.57-4.53-.1-2.55-.52-5.04-1.61-7.42-2.26-4.94-11.4-8.68-17.03-2.7-2.55,2.71-4.25,5.83-4.76,9.49-.6,4.32.13,8.33,3.15,11.76,2.82,3.21,9.93,3.88,12.49-2.14.5-1.18.8-2.41,1.08-3.66.63-2.89-.19-5.32-2.35-7.33-.58-.54-1.32-.92-1.78-1.71,3.32.24,5.6,2.45,6.07,5.88.51,3.71-.23,7.13-2.37,10.26-1.79,2.63-4.28,3.9-7.38,4.07-2.56.14-4.88-.58-6.98-2.07-.6-.42-1.06-1.09-2.18-1.11-2.5,4.66-6.65,5.07-11.37,3.54-1.23,2.16-3.03,3.46-4.97,4.35-.41.77-.44,1.46-.44,2.12-.03,7.08,2.09,13.44,6.57,18.93,1.83,2.24,4.3,3.45,7.26,3.52,1.12.03,2.25.1,3.37.22.46.05,1.09-.09,1.28.83-2.87,1.53-6.09.77-9.22,1.09.18,1.99,1.16,3.12,2.61,3.94,5.95,3.37,11.88,3.11,17.77-.16.94-.52,1.66-1.29,2.2-2.21.52-.9.69-1.82-.4-2.88-1.04,0-2.31.09-3.56-.02-1.17-.1-2.55.28-3.45-.99.83-.87,1.83-.86,2.78-.94,4.71-.39,11.25-5.18,11.97-11.51.14-1.2.09-2.39.05-3.59-.07-2.32-.28-4.66.04-6.97.8-5.74,5.06-8.44,10.56-6.72,1.43.45,2.83,1,4.23,1.52,1.35.5,2.71.87,4.17.78,3.34-.19,5.3-2.23,6.6-5.03,1.23-2.64.23-4.86-1.69-6.7-4.05-3.86-8.94-5.31-14.46-4.65-2.4.29-4.65,1.13-6.82,2.19-.83.41-1.66,1.1-2.99.52ZM93.48,209.68c.18,1.63.24,3.6,1.01,5.41.98,2.32,2.36,4.38,4.76,5.44,1.97.87,3.99.87,5.68-.64,1.63-1.46,2.23-3.22,1.39-5.45-1.13-2.99-1.37-6.11-.7-9.27.17-.8.33-1.61.5-2.41.34-1.54-.18-2.78-1.3-3.84-2.48-2.35-5.61-2.19-7.85.48-2.41,2.88-3.28,6.32-3.5,10.28ZM94.74,221.58c-.46-.68-.87-1.29-1.3-1.91-1.7-2.46-2.56-5.21-2.78-8.17-.13-1.72-.12-3.45.09-5.15.2-1.54-.3-2.63-1.68-3.31-1.36-.67-2.62-.4-3.77.49-1.12.86-1.78,2.05-2.05,3.39-1,4.79-.47,9.36,2.07,13.63.87,1.46,2.09,2.55,3.59,3.28,2.46,1.2,4.37.5,5.83-2.24Z"/><path class="cls-11" d="M130.41,210.87c1.33.58,2.15-.11,2.99-.52,2.17-1.07,4.41-1.9,6.82-2.19,5.52-.67,10.41.78,14.46,4.65,1.92,1.83,2.92,4.06,1.69,6.7-1.3,2.8-3.26,4.84-6.6,5.03-1.46.08-2.82-.28-4.17-.78-1.4-.52-2.8-1.07-4.23-1.52-5.5-1.72-9.76.98-10.56,6.72-.32,2.31-.11,4.64-.04,6.97.03,1.2.08,2.39-.05,3.59-.72,6.33-7.26,11.13-11.97,11.51-.96.08-1.95.07-2.78.94.9,1.27,2.28.89,3.45.99,1.25.11,2.52.02,3.56.02,1.09,1.06.92,1.98.4,2.88-.54.92-1.26,1.69-2.2,2.21-5.89,3.27-11.82,3.52-17.77.16-1.45-.82-2.42-1.95-2.61-3.94,3.13-.32,6.35.43,9.22-1.09-.19-.91-.82-.78-1.28-.83-1.12-.12-2.24-.19-3.37-.22-2.96-.07-5.43-1.28-7.26-3.52-4.48-5.49-6.6-11.85-6.57-18.93,0-.67.03-1.35.44-2.12,1.95-.89,3.74-2.19,4.97-4.35,4.72,1.54,8.86,1.12,11.37-3.54,1.12.02,1.59.68,2.18,1.11,2.09,1.49,4.41,2.21,6.98,2.07,3.11-.17,5.59-1.44,7.38-4.07,2.14-3.13,2.88-6.55,2.37-10.26-.47-3.42-2.75-5.64-6.07-5.88.46.79,1.2,1.18,1.78,1.71,2.16,2.01,2.98,4.44,2.35,7.33-.27,1.24-.57,2.47-1.08,3.66-2.56,6.02-9.68,5.35-12.49,2.14-3.01-3.43-3.75-7.44-3.15-11.76.51-3.66,2.21-6.79,4.76-9.49,5.63-5.98,14.77-2.25,17.03,2.7,1.09,2.37,1.51,4.86,1.61,7.42.06,1.61-.74,3.03-1.57,4.53ZM104.52,227.05c-1.94,2.25-1.24,4.59-.84,6.74.79,4.28,3.46,8.25,5.97,9.03-.2-1.91-1.46-3.27-2.03-4.88-.63-1.76-1.24-3.51-1.66-5.34-.39-1.71-.1-3.59-1.43-5.55Z"/><path class="cls-11" d="M93.48,209.68c.22-3.96,1.09-7.4,3.5-10.28,2.24-2.67,5.37-2.84,7.85-.48,1.12,1.06,1.63,2.29,1.3,3.84-.18.8-.33,1.61-.5,2.41-.68,3.16-.43,6.28.7,9.27.84,2.23.24,3.99-1.39,5.45-1.69,1.51-3.71,1.51-5.68.64-2.4-1.06-3.78-3.12-4.76-5.44-.77-1.81-.83-3.78-1.01-5.41Z"/><path d="M104.52,227.05c1.34,1.96,1.04,3.84,1.43,5.55.42,1.82,1.03,3.58,1.66,5.34.58,1.61,1.84,2.97,2.03,4.88-2.5-.78-5.18-4.75-5.97-9.03-.4-2.15-1.1-4.49.84-6.74Z"/><path class="cls-8" d="M206.81,469.14c-3.82,2.85-8.07,4.81-12.62,6.16-3.86,1.14-7.57.74-11.23-.88-4.96-2.19-8.93-5.61-12.32-9.74-7.31-8.91-13.05-18.72-16.61-29.74-4.09-12.67-5.74-25.42-1.86-38.5,1.91-6.45,5.53-11.3,11.77-14.06,3.73-1.65,7.66-2.44,11.68-2.94,7.75-.96,15.19-.12,21.96,3.97,8.81,5.32,14.96,14.57,12.27,26.85-.6,2.74-1.79,5.25-2.72,7.89.78,1.67,2.02,3.05,2.73,4.75.76,1.81.23,3.82,1.02,5.73,2.21-.28,4.12.66,5.94,1.39,6.9-2.43,31.84-28.54,34.76-36.3-11.08-11.86-18.53-25.58-20.14-42.04,4.83-1.89,12.95-1.02,18,1.86,2.73,8.45,6.45,16.53,13.44,23.1,3.99-7.15,6.86-14.33,9.55-21.76,7.58-.93,14.26.76,20.29,5.57-3.93,9.86-8.93,18.88-14.18,27.7,4.46,3.5,19.26,8.54,25.07,8.62,1.08-.65,1.66-1.82,2.58-2.66,2.84-2.58,6.54-3.12,8.8-.69,1.92,2.06,4.17,2.41,6.62,2.87,8.99,1.66,15.72,6.8,21.08,13.94,1.38,1.83,1.9,4.02,1.41,6.29-.44,2.06-.86,4.14-1.7,6.09-3.97,9.16-7.94,18.33-13.35,26.76-1.6,2.5-3.28,5.01-6.21,6.22-2.4.99-4.78,1.98-7.32,2.6-8.9,2.18-17.87,2.32-26.88.86-3.63-.59-7.08-1.77-10.32-3.51-2.44-1.31-3.12-2.7-2.65-5.45.39-2.27.86-4.53,1.37-6.77.8-3.49,2.15-6.76,4.21-9.71,3.01-4.29,6.7-7.65,12.09-8.63.64-.12,1.33-.26,1.97-.94.3-1.65,1.69-2.92,2.62-4.55-1.2-1.53-1.36-3.39-2.03-5.24-10.72-.82-20.67-4.07-29.99-9.41-6.53,7.64-12.89,14.95-19.87,21.68-6.99,6.74-14.48,12.87-22.28,18.31-.86,10.4-2.94,13.28-10.42,14.12-.83,4.29-3.1,7.63-6.54,10.19ZM299.99,421.45c-.92.67-1.5,1.6-1.82,2.71.89.91,1.99.86,3,1.08,4.83,1.04,8.97,3.32,12.29,7.01.89.99,1.74,2.03,1.77,3.63-1.1.36-1.6-.44-2.16-.99-3.47-3.41-7.64-5.37-12.38-6.33-4.84-.98-8.93.35-12.37,3.77-3.73,3.71-5.76,8.34-6.91,13.38-.36,1.56-.98,3.14-.54,4.85,1.03,1.24,2.57,1.68,4.01,2.06,10.81,2.82,21.6,2.97,32.39-.25,4.01-1.2,7-3.47,8.93-7.15,4.24-8.07,8.64-16.05,12-24.55.25-.63.38-1.3.69-1.89,1.97-3.75.83-6.74-2.07-9.48-3.67-3.48-7.74-6.29-12.37-8.31-1.76-.77-3.59-1.35-5.79-1.06-.11,13.1-8.94,22.9-18.69,21.54ZM207.7,463.08c1.55-2.01,2.54-4.29,2.48-6.92-.05-2.12.35-4.21.61-6.3.07-.57.08-1.17,1.04-1.49,1.49,2.13,0,5.07,1.76,7.21,2.19.59,3.82-.41,5.16-2.09.98-1.22,1.61-2.65,1.77-4.2.64-6.15-1.05-11.6-5.16-16.24-1.15-1.3-2.56-2.02-4.59-1.1-1.64,3.69.29,7.56.06,11.41-1.29.29-1.57-.66-1.83-1.4-1.51-4.18-2.62-8.45-1.9-12.95.43-2.69.07-5.1-1.89-7.35-2.05,1.21-3.25,3.64-5.99,3.94-.21-1.35.71-2.04,1.25-2.83,2.2-3.17,4.01-6.51,5.06-10.27,4.04-14.48-4.6-23.54-14.59-27.06-6.27-2.21-12.67-1.85-19.03-.3-2.3.56-4.66.99-6.69,2.36.17.25.25.5.39.54,6.75,1.95,11.75,6.4,16.2,11.52,9.7,11.13,15.74,24.03,17.92,38.64.77,5.21,1.41,10.46,1.51,15.75.08,4.64-.6,9.18-1.79,13.65-.14.52-.56,1.04-.1,1.78,3.22-1.53,6.14-3.46,8.34-6.3ZM160.49,436.06c.04,2.78,1.17,4.71,2.35,6.72,10.95,2.12,21.97,3.09,32.98,4.2.3-2.59.2-3.53-.75-6.51-11.47-1.46-22.92-2.92-34.58-4.4ZM193.95,432.11c-6.07-.85-12.1-1.69-18.12-2.54-6.03-.85-11.99-2.19-18.26-2.68.09,2.2.68,3.99,1.2,5.62.77.98,1.76,1.05,2.7,1.19,10.61,1.55,21.22,3.09,31.83,4.62.37.05.75,0,1.33,0,.54-2.25-.45-4.01-.68-6.23ZM191.08,424c-1.96-.67-33.73-6.08-35.23-5.99-.5,1.93.42,3.68.78,5.82,12.01,2.06,23.96,4.47,36.24,6.03.02-2.42-1.05-4.13-1.79-5.87ZM155.3,414.39c11.3,2.9,22.83,4.64,34.8,7.12-1.01-2.73-2.14-4.77-3.45-7.05-10.2-1.9-20.54-3.82-31.23-5.8-.46,2.13-.36,3.82-.12,5.73ZM184.43,410.67q-3.54-5.57-9.94-7.03c-5.32-1.2-10.65-2.38-15.97-3.56-.36-.08-.75-.05-1.19-.08-1.26,1.52-1.02,3.44-1.56,5.02.57,1.16,1.64,1.15,2.53,1.34,8.41,1.86,16.83,3.67,25.25,5.48.37.08.76.12,1.27-.3-.16-.38-.23-.66-.38-.89ZM196.11,449.14c-10.41-.61-20.83-1.71-31.29-3.36.68,3.83,1.81,5.02,5.03,5.42,7.8.95,15.6,1.88,23.4,2.8.94.11,1.9.32,3.06-.2.49-1.52.28-2.91-.2-4.65ZM196.24,455.98c-9.01-.47-17.92-1.42-27.14-2.53.9,2.58,2.67,4.16,3.88,6.17,7.65.98,15.25,1.4,22.88,1.81.67-1.9.84-3.54.38-5.46ZM303.52,418.43c1.39-.06,2.63-.52,3.75-1.3,5.67-3.9,8.29-9.34,8.07-16.18-.02-.66-.14-1.34-.33-1.98-1.21-4.23-4.34-4.94-7.65-1.73.56.66,1.4.46,2.09.65,2.09.58,2.98,1.46,2.92,3.64-.13,4.75-2.15,8.67-5.75,11.74-.97.82-2.24,1.01-3.51,1.06-1.03.04-2.11-.23-3.24.45.33,3.1,1.03,3.76,3.66,3.64ZM176.32,400.31c-2.08-2.27-4.41-4.27-7.04-5.89-1.9-1.17-3.93-2.01-6.21-2.05-3.11-.05-4.55,1.25-5.12,4.86,6.34,1.83,12.75,3.49,19.24,4.97.2-1.07-.46-1.44-.88-1.9ZM184.75,467.79c3.15,0,6.29,0,9.53,0,.79-1.18,1.34-2.45,1.05-4.27-6.43-.34-12.86-.68-19.66-1.04,2.31,3.7,5.25,5.31,9.08,5.31ZM192.82,470.25c-2.73-.75-5.04-.34-7.28-.19,2.27.86,4.49,1.66,7.28.19Z"/><path class="cls-11" d="M324.47,400.97c4.62,2.02,8.7,4.83,12.37,8.31,2.89,2.74,4.04,5.73,2.07,9.48-.31.59-.44,1.27-.69,1.89-3.35,8.5-7.76,16.48-12,24.55-1.93,3.67-4.92,5.95-8.93,7.15-10.79,3.22-21.58,3.08-32.39.25-1.44-.38-2.98-.81-4.01-2.06-.44-1.71.18-3.29.54-4.85,1.15-5.04,3.18-9.67,6.91-13.38,3.45-3.42,7.54-4.75,12.37-3.77,4.74.96,8.91,2.92,12.38,6.33.56.55,1.06,1.36,2.16.99-.03-1.6-.89-2.64-1.77-3.63-3.32-3.69-7.46-5.97-12.29-7.01-1.01-.22-2.11-.17-3-1.08.32-1.11.9-2.04,1.82-2.71,9.75,1.37,18.58-8.43,18.69-21.54,2.19-.3,4.02.28,5.79,1.06ZM334.16,415.01c-1.99,4.46-4.02,8.91-5.98,13.38-1.89,4.31-4.2,8.4-6.34,12.57-.6,1.16-1.41,2.25-1.61,3.75,1.21.28,1.58-.6,2.07-1.22,2.29-2.87,3.81-6.21,5.53-9.41,3.23-6,5.83-12.29,8.04-18.73.26-.76.81-1.55.26-2.79-1.33.45-1.56,1.52-1.97,2.44ZM314.15,448.4c-3.24-.06-5.78,1.04-8.42,1.28-2.88.26-5.75.39-8.62.18-2.69-.21-5.37-.73-8.43-.32,4.25,3.73,19.58,3.06,25.47-1.13Z"/><path class="cls-11" d="M199.46,467.61c1.19-4.48,1.87-9.01,1.79-13.65-.1-5.29-.73-10.54-1.51-15.75-2.17-14.61-8.21-27.51-17.92-38.64-4.46-5.12-9.46-9.57-16.2-11.52-.14-.04-.21-.29-.39-.54,2.04-1.37,4.39-1.8,6.69-2.36,6.37-1.54,12.76-1.91,19.03.3,9.99,3.52,18.63,12.58,14.59,27.06-1.05,3.76-2.86,7.09-5.06,10.27-.54.79-1.46,1.48-1.25,2.83,2.74-.3,3.94-2.73,5.99-3.94,1.96,2.25,2.32,4.65,1.89,7.35-.72,4.5.39,8.76,1.9,12.95.27.74.55,1.68,1.83,1.4.23-3.84-1.71-7.72-.06-11.41,2.03-.92,3.44-.2,4.59,1.1,4.11,4.64,5.79,10.09,5.16,16.24-.16,1.55-.79,2.98-1.77,4.2-1.34,1.67-2.98,2.68-5.16,2.09-1.77-2.14-.27-5.08-1.76-7.21-.96.32-.97.93-1.04,1.49-.26,2.1-.65,4.18-.61,6.3.06,2.63-.93,4.91-2.48,6.92-2.19,2.84-5.12,4.77-8.34,6.3-.46-.73-.04-1.26.1-1.78ZM195.72,414.42c-2.56-8.64-7.18-16.01-13.71-22.19-2.89-2.73-6.42-4.92-8.73-5.45-.13,1.21.83,1.61,1.49,2.18,6.84,5.83,12.48,12.66,16.89,20.48.89,1.58,1.64,3.24,2.42,4.87.28.59.38,1.32,1.23,1.32.6-.29.55-.73.41-1.22ZM202.62,462.58c.65.09.8-.38.9-.85.59-2.8,1.3-5.58,1.21-8.48-.13-4.3-.67-8.57-1.32-12.81-.13-.83-.21-1.73-1.5-2.1-.23,1.94.41,23.27.71,24.25Z"/><path class="cls-11" d="M195.07,440.47c-11.47-1.46-22.92-2.92-34.58-4.4.04,2.78,1.17,4.71,2.35,6.72,10.95,2.12,21.97,3.09,32.98,4.2.3-2.59.2-3.53-.75-6.51Z"/><path class="cls-11" d="M194.62,438.34c.54-2.25-.45-4.01-.68-6.23-6.07-.85-12.1-1.69-18.12-2.54-6.03-.85-11.99-2.19-18.26-2.68.09,2.2.68,3.99,1.2,5.62.77.98,1.76,1.05,2.7,1.19,10.61,1.55,21.22,3.09,31.83,4.62.37.05.75,0,1.33,0Z"/><path class="cls-11" d="M192.87,429.86c.02-2.42-1.05-4.13-1.79-5.87-1.96-.67-33.73-6.08-35.23-5.99-.5,1.93.42,3.68.78,5.82,12.01,2.06,23.96,4.47,36.24,6.03Z"/><path class="cls-11" d="M155.42,408.66c-.46,2.13-.36,3.82-.12,5.73,11.3,2.9,22.83,4.64,34.8,7.12-1.01-2.73-2.14-4.77-3.45-7.05-10.2-1.9-20.54-3.82-31.23-5.8Z"/><path class="cls-11" d="M184.81,411.56c-.16-.38-.23-.66-.38-.89q-3.54-5.57-9.94-7.03c-5.32-1.2-10.65-2.38-15.97-3.56-.36-.08-.75-.05-1.19-.08-1.26,1.52-1.02,3.44-1.56,5.02.57,1.16,1.64,1.15,2.53,1.34,8.41,1.86,16.83,3.67,25.25,5.48.37.08.76.12,1.27-.3Z"/><path class="cls-11" d="M196.31,453.79c.49-1.52.28-2.91-.2-4.65-10.41-.61-20.83-1.71-31.29-3.36.68,3.83,1.81,5.02,5.03,5.42,7.8.95,15.6,1.88,23.4,2.8.94.11,1.9.32,3.06-.2Z"/><path class="cls-11" d="M195.85,461.44c.67-1.9.84-3.54.38-5.46-9.01-.47-17.92-1.42-27.14-2.53.9,2.58,2.67,4.16,3.88,6.17,7.65.98,15.25,1.4,22.88,1.81Z"/><path class="cls-11" d="M299.87,414.78c.33,3.1,1.03,3.76,3.66,3.64,1.39-.06,2.63-.52,3.75-1.3,5.67-3.9,8.29-9.34,8.07-16.18-.02-.66-.14-1.34-.33-1.98-1.21-4.23-4.34-4.94-7.65-1.73.56.66,1.4.46,2.09.65,2.09.58,2.98,1.46,2.92,3.64-.13,4.75-2.15,8.67-5.75,11.74-.97.82-2.24,1.01-3.51,1.06-1.03.04-2.11-.23-3.24.45Z"/><path class="cls-11" d="M177.19,402.21c.2-1.07-.46-1.44-.88-1.9-2.08-2.27-4.41-4.27-7.04-5.89-1.9-1.17-3.93-2.01-6.21-2.05-3.11-.05-4.55,1.25-5.12,4.86,6.34,1.83,12.75,3.49,19.24,4.97Z"/><path class="cls-11" d="M175.67,462.49c2.31,3.7,5.25,5.31,9.08,5.31,3.15,0,6.29,0,9.53,0,.79-1.18,1.34-2.45,1.05-4.27-6.43-.34-12.86-.68-19.66-1.04Z"/><path class="cls-11" d="M185.53,470.06c2.27.86,4.49,1.66,7.28.19-2.73-.75-5.04-.34-7.28-.19Z"/><path d="M336.13,412.56c-1.33.45-1.56,1.52-1.97,2.44-1.99,4.46-4.02,8.91-5.98,13.38-1.89,4.31-4.2,8.4-6.34,12.57-.6,1.16-1.41,2.25-1.61,3.75,1.21.28,1.58-.6,2.07-1.22,2.29-2.87,3.81-6.21,5.53-9.41,3.23-6,5.83-12.29,8.04-18.73.26-.76.81-1.55.26-2.79Z"/><path d="M288.68,449.53c4.25,3.73,19.58,3.06,25.47-1.13-3.24-.06-5.78,1.04-8.42,1.28-2.88.26-5.75.39-8.62.18-2.69-.21-5.37-.73-8.43-.32Z"/><path d="M195.31,415.64c.6-.29.55-.73.41-1.22-2.56-8.64-7.18-16.01-13.71-22.19-2.89-2.73-6.42-4.92-8.73-5.45-.13,1.21.83,1.61,1.49,2.18,6.84,5.83,12.48,12.66,16.89,20.48.89,1.58,1.64,3.24,2.42,4.87.28.59.38,1.32,1.23,1.32Z"/><path d="M201.91,438.33c-.23,1.94.41,23.27.71,24.25.65.09.8-.38.9-.85.59-2.8,1.3-5.58,1.21-8.48-.13-4.3-.67-8.57-1.32-12.81-.13-.83-.21-1.73-1.5-2.1Z"/><path class="cls-15" d="M206.26,188.37c-1.15-.4-2.17-.04-3.12.19-4.82,1.17-9.43,2.87-13.36,6.04-.94.76-1.81,1.59-2.51,2.57-1.92,2.68-2.11,5.53-.89,8.54,1.46,3.61,3.86,6.48,6.93,8.82,6.35,4.85,13.35,8.56,20.73,11.55,11.67,4.74,23.75,8.1,36.04,10.78,8.39,1.83,16.79,3.63,25.23,5.23,5.38,1.02,10.82,1.61,16.28,1.92,10.51.6,21.02.93,31.55.87,7.79-.04,15.46-1.03,23.1-2.42,5.79-1.05,11.59-2.12,17.22-3.85,4.14-1.27,8.23-2.68,11.89-5.1,1.31-.86,2.55-1.81,3.65-2.93,1.65-1.68,2.61-3.66,3.06-6,.42-2.15,1.13-4.24,1.78-6.6,2.54,3.13,4.23,6.31,4.7,10.06.78,6.17.18,12.22-1.42,18.21-3.72,13.88-7.48,27.75-12.7,41.17-3.52,9.04-7.79,17.71-12.87,25.98-5.81,9.45-13.4,17.25-22.07,24.07-3.02,2.38-6.01,4.83-9.28,6.86-3.58,2.21-7.28,4.2-11.36,5.37-7.11,2.03-14.25,3.92-21.6,4.9-5.57.75-11.16.71-16.74.46-6.31-.28-12.59-.82-18.85-1.67-12.25-1.66-24.04-4.9-34.93-10.84-12.08-6.59-21.86-15.76-29.8-27-6.37-9.02-10.5-19-13.39-29.57-2.64-9.65-4.36-19.46-5.45-29.39-1-9.16-1.31-18.35-1.31-27.55,0-4.21.38-8.41.47-12.62.07-3-.11-5.99.11-9,.11-1.48.49-2.81,1.24-4.08,2.39-4,5.68-7.14,9.38-9.87,6.63-4.88,14.08-8.02,22.01-10.01,7.47-1.88,15.1-2.88,22.75-3.7,7.78-.84,15.57-1.34,23.39-1.34,5.96,0,11.89.57,17.8,1.23,8.84.98,17.65,2.23,26.45,3.49,10.72,1.53,21.28,3.78,31.66,6.89,1.33.4,2.37,1.08,3.23,2.15,1.57,1.93,2.87,4,3.57,6.41,1.34,4.65-.18,9.11-4.1,11.94-2.23,1.61-4.79,2.47-7.41,3.19-4.08,1.12-8.26,1.59-12.47,1.75-2.1.08-4.21.12-6.31.03-6.59-.26-13.08.29-19.48,1.98-2.15.57-4.36.85-6.58,1.02-3.93.3-7.64-.43-11.19-2.14-2.81-1.36-5.6-2.76-8.51-3.92-4.03-1.61-8.19-2.33-12.52-1.96-2.41.21-4.73.84-7,1.65-3.51,1.24-7,2.54-10.5,3.84-6.19,2.29-12.55,3.15-19.13,2.56-3.18-.28-6.33-.65-9.41-1.54-1.22-.35-2.37-.85-3.45-1.51-3.03-1.87-5.9-3.95-8.53-6.34-1.48-1.35-2.77-2.79-3.13-4.91-.57-3.29.57-5.95,2.93-8.08,2.7-2.44,5.92-4.09,9.26-5.49,1.27-.53,2.57-1.01,3.85-1.53.36-.15.82-.17,1.09-.8Z"/><path class="cls-12" d="M354.49,329.25c4.29-4.54,7.71-9.3,10.81-14.26,4.01-.73,7.91-1.42,11.76-2.32,4.62-1.09,9.22-2.25,13.66-3.94,5.24-2,10.05-4.69,13.6-9.15,6.09-7.66,8.66-16.33,6.47-26-1.89-8.33-7.22-13.5-15.6-15.41-2.16-.5-4.37-.71-6.46-.7-.42-.45-.28-.82-.19-1.15.54-2.03,1.09-4.06,1.66-6.08.45-1.58,1.06-2,2.65-2.23,9.9-1.42,22.17,4.37,27.02,15.02,1.78,3.91,3.09,7.95,3.88,12.15.8,4.23.15,8.38-.82,12.5-2.39,10.09-7.68,18.38-15.27,25.4-8.64,7.99-18.7,12.89-30.2,15.1-5.7,1.09-11.41,1.6-17.2,1.28-1.79-.1-3.58-.13-5.77-.2Z"/><path class="cls-12" d="M328.86,349.75c-.84,3.07-2.6,4.95-5.01,6.28-3.76,2.08-7.77,3.49-11.89,4.63-7.76,2.16-15.69,2.86-23.71,2.92-17.18.13-33.88-2.59-50.05-8.37-7.53-2.7-14.74-6.16-21.48-10.53-2.07-1.34-4.03-2.83-5.71-4.66-1.29-1.41-2.15-3.02-2.5-5.04.52,0,.75.37,1.03.59,7.68,6.16,15.79,11.56,25.06,15.09,8.86,3.38,17.99,5.59,27.39,6.79,6.44.82,12.91,1.28,19.39,1.65,10.85.62,21.46-.84,31.9-3.69,3.77-1.03,7.58-1.91,11.16-3.51,1.41-.63,2.78-1.35,4.43-2.17Z"/><path class="cls-8" d="M252.5,302.32c-.44-.51-.34-1.06-.38-1.6-.1-1.7-.7-3.22-1.68-4.6-.35-.5-.79-.9-1.31-1.23-2.11-1.32-4.31-.73-5.4,1.5-1.37,2.83-.97,5.65.14,8.45.68,1.71,1.8,3.11,3.14,4.35.43.39.99.72.93,1.5-.55.38-1.03.07-1.49-.21-2.08-1.25-3.63-2.96-4.63-5.19-1.01-2.26-1.28-4.61-.96-7.13-3.77-4.03-8.38-6.19-13.91-6.46-5.45-.27-10.27,1.28-14.26,4.96-.51-.29-.49-.54-.23-.81.69-.72,1.32-1.53,2.1-2.14,1.07-.84,1.55-1.9,1.74-3.2.72-5.07,1.73-10.08,3.03-15.03.98-3.73,1.91-7.49,3.67-10.95,1.07-2.1,2.21-4.16,3.57-6.09,1.81-2.57,4.16-4.49,7.17-5.47,5.43-1.78,11.09.79,13.7,6.09,1.52,3.09,1.88,6.4,2.01,9.78.17,4.4-.61,8.69-1.4,12.98-.52,2.81-1.31,5.56-1.99,8.34-.13.52-.41,1.03-.13,1.74,2.65.15,5.12.86,6.32,3.62.97,2.22,1.05,4.51.23,6.8ZM241.28,295.96c1.18-1.47,2.18-2.86,2.6-4.62,1.26-5.38,2.1-10.83,2.81-16.3.42-3.19.56-6.39.16-9.59-.41-3.22-1.56-6.1-3.87-8.45-1.43-1.45-3.13-2.31-5.19-2.4-.71-.03-1.37.06-1.92.5.06.36.31.46.52.59,1.39.83,2.06,2.14,2.39,3.67,1.02,4.76-.17,9.34-.98,13.95-2.46.68-4.89.53-7.45,1.21,1.95,1.85,4.46,2.47,6.28,4.2-1.05,3.98-2.08,7.88-3.15,11.92,2.92,1.42,5.57,3.02,7.8,5.34Z"/><path class="cls-8" d="M288.18,314.04c-3.05-6.09-7.62-10.29-14.33-11.82-6.68-1.52-12.66.12-17.9,4.36-.51-.42-.23-.66-.05-.87.73-.83,1.43-1.7,2.32-2.34.72-.51,1-1.17,1.15-2,.84-4.74,1.58-9.49,2.79-14.16,1.23-4.75,2.42-9.52,4.73-13.91,1.43-2.71,2.96-5.35,5.27-7.43,2.18-1.96,4.66-3.31,7.66-3.4,4.69-.13,8.19,1.9,10.54,5.93,1,1.71,1.55,3.58,1.9,5.51.66,3.73.63,7.47.14,11.22-.93,7.18-2.73,14.16-4.8,21.08-.11.38-.2.78-.33,1.16-.41,1.16-.29,2.24.34,3.31.58.99.94,2.07.57,3.35ZM285.42,306.96c.24-.35.35-.46.39-.6.16-.53.3-1.06.44-1.59,1.6-6.06,2.62-12.24,3.57-18.43.52-3.37.74-6.77.37-10.18-.32-2.98-1.1-5.81-3.06-8.18-1.16-1.41-2.5-2.63-4.3-3.13-1.24-.35-2.51-.49-3.66.15-.03.3.06.42.2.49,1.81.97,2.47,2.62,2.81,4.54.49,2.76.22,5.49-.14,8.22-.23,1.72-.52,3.44-1.1,5.16-1.25.17-2.44.32-3.62.51-1.17.19-2.43.05-3.67.73,2.06,1.59,4.36,2.43,6.21,3.97-.12.58-.21,1.07-.34,1.55-.78,2.95-1.58,5.9-2.36,8.85-.15.57-.44,1.14,0,1.86,3.14,1.28,5.8,3.45,8.26,6.07Z"/><path class="cls-8" d="M253,316.94c-1,1.37-2.32,1.83-3.69,2.06-2.86.48-5.36-.34-7.44-2.35-.83-.8-1.55-1.71-2.33-2.55-.48-.51-.95-1.04-1.49-1.48-2.15-1.79-4.36-1.62-6.25.42-1.94,2.09-2.74,4.62-2.84,7.41-.03.74.06,1.5.2,2.24.34,1.89,1.45,2.87,3.38,3.06,1.06.11,2.1-.03,3.12-.34,1.73-.51,3.45-1.05,5.19-1.52,1.73-.47,3.46-.47,5.15.25.7.3,1.36.67,1.9,1.19,1.23,1.18,2.37,2.45,3.21,3.96.23.42.62.81.38,1.39-.51.22-.72-.22-.99-.46-1-.91-1.97-1.85-2.97-2.76-1.74-1.58-3.76-2-6.01-1.32-2.16.65-4.32,1.3-6.47,1.96-1.29.4-2.57.34-3.85-.06-2.11-.67-3.64-2.01-4.08-4.22-.92-4.69-.07-8.94,3.33-12.53,2.84-3,6.57-2.71,9.36-.6.81.61,1.46,1.37,2.08,2.16.5.63.98,1.27,1.47,1.91,1.91,2.54,4.46,3.23,7.47,2.56.54-.12,1.07-.27,1.6-.4.09-.02.19.01.56.05Z"/><path class="cls-8" d="M236.99,318.96c-.23.83-.46,2.02-1.11,3.05-.27.43-.55.83-.92,1.17-1.74,1.61-3.75,1.13-4.37-1.18-.81-3.04-.18-5.85,1.9-8.25.71-.81,1.65-1.38,2.8-1.03,1.13.34,1.6,1.26,1.85,2.35.28,1.2.11,2.38-.15,3.89Z"/><path class="cls-8" d="M221.1,260.39c.22.37.16.62.09.85-2.36,7.4-4.43,14.89-6.37,22.41-.01.06-.16.08-.25.13-.35-.08-.29-.36-.25-.59.66-3.6,1.04-7.25,1.91-10.81.9-3.66,2.14-7.2,3.69-10.63.25-.55.5-1.08,1.19-1.36Z"/><path class="cls-8" d="M223.66,252.02c-.2-.73.3-1.22.72-1.68,1.47-1.61,3.29-2.77,5.13-3.87.99-.59,1.83-.41,2.46.28.83.92.78,2.29-.33,2.83-2.33,1.14-4.73,2.16-7.28,2.72-.2.04-.4,0-.7-.29Z"/><path class="cls-8" d="M297.6,269.25c-.72-.03-1.07-.4-1.41-.76-1.35-1.41-2.68-2.83-4-4.27-.27-.29-.5-.63-.67-.99-.37-.8-.16-1.64.47-2.17.67-.57,1.61-.6,2.35-.07.33.24.6.53.79.89.8,1.5,1.64,2.98,2.37,4.52.42.88.78,1.85.1,2.85Z"/><path class="cls-8" d="M266.41,267.88c.14.43.22.55.19.61-3.42,7.13-5.2,14.81-7.64,22.28,0,.02-.09.01-.23.03-.42-.31-.2-.77-.13-1.17,1.31-7.63,3.17-15.06,7.81-21.75Z"/><path class="cls-8" d="M225.6,323.09c-2.65-3.96.12-12.69,4.23-13.42-.72,1.51-1.85,2.59-2.49,3.95-.69,1.46-1.09,3-1.37,4.58-.27,1.52-.13,3.07-.37,4.89Z"/><path class="cls-8" d="M224.97,312.15c-.51,1.9-.95,3.56-1.42,5.31-1.21-1.73-.64-4.13,1.42-5.31Z"/><path class="cls-8" d="M258.47,279.46c.64-1.71.35-3.78,2.05-5.15.42,1.15-.54,3.65-2.05,5.15Z"/><path class="cls-8" d="M216.37,266.28c-.1,1.54-.67,2.84-1.44,4.23-.55-1.55.23-3.79,1.44-4.23Z"/><path class="cls-11" d="M241.28,295.96c-2.24-2.31-4.88-3.91-7.8-5.34,1.07-4.04,2.1-7.95,3.15-11.92-1.82-1.73-4.33-2.35-6.28-4.2,2.56-.68,5-.53,7.45-1.21.8-4.61,2-9.19.98-13.95-.33-1.53-.99-2.83-2.39-3.67-.21-.13-.45-.23-.52-.59.55-.45,1.21-.54,1.92-.5,2.06.09,3.76.95,5.19,2.4,2.31,2.35,3.46,5.24,3.87,8.45.4,3.2.26,6.4-.16,9.59-.71,5.47-1.55,10.92-2.81,16.3-.41,1.76-1.41,3.15-2.6,4.62Z"/><path class="cls-11" d="M285.42,306.96c-2.47-2.62-5.13-4.79-8.26-6.07-.45-.71-.16-1.29,0-1.86.78-2.95,1.58-5.9,2.36-8.85.13-.48.21-.97.34-1.55-1.85-1.55-4.15-2.38-6.21-3.97,1.24-.68,2.49-.54,3.67-.73,1.18-.19,2.37-.33,3.62-.51.59-1.72.87-3.44,1.1-5.16.36-2.73.63-5.46.14-8.22-.34-1.91-1-3.56-2.81-4.54-.13-.07-.23-.19-.2-.49,1.16-.65,2.43-.5,3.66-.15,1.81.51,3.14,1.73,4.3,3.13,1.96,2.37,2.74,5.2,3.06,8.18.37,3.41.14,6.81-.37,10.18-.95,6.19-1.97,12.36-3.57,18.43-.14.53-.28,1.06-.44,1.59-.04.13-.16.24-.39.6Z"/><path class="cls-14" d="M383.58,215.46s13.25,10.92,3.8,39.27c-9.45,28.35-12.36,37.8-12.36,37.8,0,0-15.75,28.47-22.53,37.07s-20.35,16.6-20.35,16.6l-4,10.3s-16.89,9.05-30.76,9.35-15.98,0-15.98,0c0,0,59.37-63.93,66.61-125.76,0,0,34.37.68,35.58-24.63Z"/><path class="cls-14" d="M176.75,199.27c-3.02,36.21-.37,73.31,10.78,108.03.9,2.81,5.34,1.61,4.43-1.22-11.03-34.37-13.61-70.96-10.62-106.81.25-2.95-4.35-2.93-4.6,0h0Z"/><ellipse class="cls-9" cx="271.12" cy="215.28" rx="20.25" ry="77.76" transform="translate(40.36 473.35) rotate(-86.65)"/><path class="cls-8" d="M324.1,183.27c-.33-.62-3.04-8.09-3.56-8.48-5.22-3.92-15.7-3.65-16.41-10.15-.82-7.41,1.99-13.42,7.63-18.14,4.44-3.72,9.67-5.78,15.36-6.66,4.5-.7,8.97-.5,13.41.64,7.86,2,.06,7.78,1.01,15.97.24,2.03,5.22,2.72,5.29,4.76.1,3.04,8.04,6.58,9.9,9,2.12,2.76,4.7,4.97,7.72,6.67,2.93,1.65,5.82,3.37,8.53,5.39,3.4,2.54-5.24,4.83-3.75,8.92,1.53,4.19,2.27,8.43,2.82,12.87.24,1.91,2.8,3.9,2.82,5.82.02,1.21,9.76,2.85,10.63,3.74.63.64,1.11,1.42,1.67,2.13,3.67,4.59,5.18,9.96,5.61,15.71.25,3.38.07,6.73-.59,10.05-.1.52-.25,1.06-.08,1.64.64.41,1.38.2,2.08.21,7.8.13,14.96,2.17,21.12,7.11,4.82,3.87,8.03,8.88,10.11,14.65,2.02,5.59,3.42,11.31,2.72,17.3-1.09,9.37-4.16,18.03-10.05,25.51-7.39,9.38-16.36,16.81-27.66,21-8.15,3.03-16.61,4.81-25.37,4.75-4.81-.03-9.62-.01-14.45-.4-.29.22-.6.4-.86.64-4.38,4.13-9.15,7.8-14,11.36-1.03.76-1.72,1.58-1.93,2.87-1.07,6.38-4.88,10.49-10.68,13.07-7.04,3.13-14.4,5.06-22.03,5.9-12.56,1.38-25.11.9-37.57-1.08-15.53-2.47-30.45-6.92-44.22-14.76-3.19-1.82-6.31-3.73-9.11-6.13-1.38-1.18-2.62-2.48-3.69-3.94-1.31-1.78-2.07-3.79-2.35-5.97-.17-1.31-.37-2.62-.44-3.94-.05-1.03-.46-1.79-1.16-2.52-6.43-6.75-11.72-14.33-15.9-22.65-3.75-7.45-6.17-15.38-8.16-23.45-2.12-8.59-3.52-17.3-4.43-26.1-1.25-12.05-1.46-24.12-.98-36.21.18-4.57.42-9.13.7-13.69.22-3.5,1.31-6.56,3.84-9.24,4.17-4.42,8.77-8.27,14.08-11.14,12.24-6.62,25.9-8.86,39.56-10.3,15.23-1.61,30.56-1.71,45.78.12,8.47,1.02,16.92,2.18,25.36,3.4,3.8.55,7.57,1.31,11.36,1.98.29.05,10,1.92,10.32,1.78ZM206.26,188.37c-.27.64-.73.66-1.09.8-1.28.53-2.58,1-3.85,1.53-3.34,1.4-6.56,3.05-9.26,5.49-2.36,2.13-3.5,4.79-2.93,8.08.37,2.11,1.65,3.56,3.13,4.91,2.63,2.4,5.5,4.48,8.53,6.34,1.08.67,2.23,1.16,3.45,1.51,3.08.89,6.23,1.25,9.41,1.54,6.58.59,12.95-.27,19.13-2.56,3.49-1.29,6.98-2.6,10.5-3.84,2.27-.8,4.59-1.44,7-1.65,4.34-.37,8.49.35,12.52,1.96,2.91,1.16,5.69,2.57,8.51,3.92,3.55,1.71,7.25,2.44,11.19,2.14,2.23-.17,4.43-.46,6.58-1.02,6.39-1.69,12.89-2.25,19.48-1.98,2.1.08,4.21.05,6.31-.03,4.21-.16,8.39-.63,12.47-1.75,2.62-.72,5.18-1.58,7.41-3.19,3.92-2.83,5.44-7.29,4.1-11.94-.7-2.42-2-4.48-3.57-6.41-.86-1.07-1.91-1.75-3.23-2.15-10.38-3.11-20.94-5.36-31.66-6.89-8.8-1.26-17.61-2.5-26.45-3.49-5.92-.66-11.84-1.23-17.8-1.23-7.82,0-15.62.5-23.39,1.34-7.65.83-15.28,1.83-22.75,3.7-7.94,2-15.39,5.14-22.01,10.01-3.7,2.73-7,5.87-9.38,9.87-.76,1.27-1.13,2.6-1.24,4.08-.22,3-.04,6-.11,9-.1,4.21-.47,8.41-.47,12.62,0,9.2.31,18.39,1.31,27.55,1.09,9.94,2.81,19.75,5.45,29.39,2.9,10.57,7.02,20.55,13.39,29.57,7.94,11.24,17.72,20.42,29.8,27,10.9,5.94,22.68,9.18,34.93,10.84,6.26.85,12.55,1.39,18.85,1.67,5.59.25,11.17.28,16.74-.46,7.35-.99,14.49-2.87,21.6-4.9,4.08-1.17,7.79-3.16,11.36-5.37,3.27-2.03,6.25-4.48,9.28-6.86,8.67-6.82,16.26-14.62,22.07-24.07,5.08-8.27,9.35-16.94,12.87-25.98,5.22-13.42,8.97-27.29,12.7-41.17,1.61-5.99,2.2-12.04,1.42-18.21-.48-3.76-2.16-6.94-4.7-10.06-.65,2.35-1.36,4.45-1.78,6.6-.45,2.33-1.41,4.32-3.06,6-1.1,1.12-2.34,2.07-3.65,2.93-3.66,2.41-7.75,3.83-11.89,5.1-5.64,1.73-11.43,2.8-17.22,3.85-7.64,1.38-15.31,2.38-23.1,2.42-10.53.05-21.04-.27-31.55-.87-5.46-.31-10.9-.9-16.28-1.92-8.44-1.6-16.84-3.4-25.23-5.23-12.28-2.68-24.37-6.04-36.04-10.78-7.38-3-14.38-6.7-20.73-11.55-3.07-2.35-5.47-5.21-6.93-8.82-1.22-3.01-1.03-5.87.89-8.54.71-.98,1.57-1.81,2.51-2.57,3.93-3.17,8.54-4.87,13.36-6.04.95-.23,1.97-.59,3.12-.19ZM354.49,329.25c2.19.08,3.98.1,5.77.2,5.79.32,11.51-.18,17.2-1.28,11.5-2.21,21.56-7.11,30.2-15.1,7.59-7.02,12.88-15.31,15.27-25.4.98-4.12,1.62-8.27.82-12.5-.8-4.21-2.1-8.25-3.88-12.15-4.85-10.64-17.12-16.44-27.02-15.02-1.58.23-2.2.65-2.65,2.23-.58,2.02-1.12,4.05-1.66,6.08-.09.33-.24.69.19,1.15,2.09,0,4.3.21,6.46.7,8.38,1.92,13.71,7.09,15.6,15.41,2.19,9.66-.38,18.33-6.47,26-3.55,4.46-8.36,7.15-13.6,9.15-4.44,1.69-9.04,2.85-13.66,3.94-3.85.91-7.76,1.59-11.76,2.32-3.1,4.96-6.52,9.72-10.81,14.26ZM368.42,309.92c3.6-.45,6.99-1.19,10.36-2.05,5.18-1.32,10.27-2.87,15.1-5.27,10.03-4.97,14.76-18.02,13.08-26.92-2.13-11.25-11.96-14.8-20.1-13.65-4.54,16.47-10.07,32.7-18.43,47.88ZM328.86,349.75c-1.66.81-3.02,1.54-4.43,2.17-3.58,1.6-7.39,2.48-11.16,3.51-10.45,2.85-21.05,4.31-31.9,3.69-6.48-.37-12.95-.83-19.39-1.65-9.4-1.2-18.52-3.41-27.39-6.79-9.27-3.53-17.39-8.94-25.06-15.09-.28-.23-.51-.6-1.03-.59.35,2.02,1.21,3.63,2.5,5.04,1.68,1.83,3.64,3.32,5.71,4.66,6.74,4.36,13.95,7.83,21.48,10.53,16.16,5.78,32.87,8.5,50.05,8.37,8.03-.06,15.95-.76,23.71-2.92,4.12-1.15,8.14-2.55,11.89-4.63,2.41-1.34,4.17-3.21,5.01-6.28Z"/><path class="cls-8" d="M340.7,375.88c-7.04-5.41-7.88-12.57-4.02-18.59-.11-.2-.19-.45-.36-.62-7.26-7.36-4.99-19.82,4.45-24.22,4.16-1.94,8.53-2.66,13.11-1.92.73.12,1.47.44,2.22,0,.35-.88-.04-1.69-.35-2.44-2.44-5.93-2.78-11.96-.96-18.12.09-.31.14-.64.27-1.25-5.78-3.14-11.99-5.36-18.12-8.2-.46-7.15,2.17-13.32,5.8-19.27,2.01.51,3.61,1.48,5.26,2.29,11.79,5.73,23.78,11.08,35.1,17.72,7.83,4.59,15.25,9.77,21.48,16.46,4.76,5.12,8.17,10.96,9.39,17.94.92,5.26.08,10.29-2.21,15.05-1.59,3.31-4.19,5.69-7.49,7.3-.83.4-1.76.62-2.47,1.35-.33,2.22-.64,4.47-1.01,6.71-.4,2.43-1.57,4.45-3.41,6.07-2.38,2.1-5.04,3.04-8.18,1.89-.47-.17-.95-.38-1.53-.23-.67.37-.96,1.12-1.33,1.76-3.66,6.29-9.3,10.16-15.81,12.95-3.61,1.55-7.39,2.37-11.34,2.36-6.34-.02-11.66-2.53-16.25-6.73-2.46-2.25-3.23-5.08-2.24-8.26ZM387.83,353.34c-1.2-1.53-1.32-3.01-1.82-4.33-1.49-3.94-4.53-6.68-7.43-9.51-1.22-1.19-2.31-2.44-3.21-3.89-1.94-3.16-2.31-6.66-2.36-10.25-.07-4.82-.23-9.63-.68-14.44-.15-1.55-.61-2.99-1.32-4.34-1.21-2.28-3.05-3.07-5.52-2.4-2.47.67-4.44,2.03-5.67,4.34-3.03,5.69-3.29,11.64-1.44,17.7.71,2.34,1.83,4.54,2.72,6.83.3.79.98,1.63.15,2.43-.24.01-.34.05-.4.02-.22-.11-.5-.2-.64-.39-1.33-1.7-3.16-2.14-5.18-2.18-.76-.01-1.52-.13-2.28-.12-4.58.09-8.92.98-12.56,3.99-4.55,3.76-5.84,10.79-2.93,15.65,1.14,1.9,2.65,3,5,2.71,1.6-.2,3.22-.14,4.79.31.81.23,1.74.42,2.14,1.52-2.19.19-4.22.26-6.2.57-3.57.57-5.34,2.79-5.13,6.38.12,2.04.6,3.99,1.68,5.79,1.71,2.86,3.09,3.55,6.28,2.68,2.4-.66,4.83-.86,7.29-.79.82.02,1.74-.08,2.12.98-.21,1.27-1.29,1.17-2.15,1.34-2.24.44-4.53.72-6.65,1.6-2.86,1.18-3.27,3.1-1.12,5.24,2.95,2.93,6.4,4.98,10.6,5.55,10.65,1.45,18.99-2.77,25.71-10.68,2.9-3.42,4.45-7.55,5.31-11.94.19-.99.12-2.15,1.15-3.05,2.15,2.86.23,6.09,1.15,8.85,3.3,1.14,5.11.5,6.73-2.26,1.06-1.8,1.52-3.79,1.49-5.83-.13-6.69-1.75-13.05-4.47-19.14-.6-1.35-1.61-2.39-2.75-3.27-1.22-.95-2.9-.86-3.99.05-1.15.97-.84,2.04-.34,3.21.93,2.18,1.64,4.44,2.19,6.75.31,1.32.41,2.62-.23,4.33ZM383.16,338.14c1.8-2.29,3.98-3.55,6.87-3.21,2.85.33,4.33,2.66,6.36,4.66.29-1.37-.09-2.31-.49-3.19-.76-1.71-1.72-3.29-3.01-4.66-4.23-4.5-9.39-7.72-14.69-10.77-.37-.21-.79-.3-1.27.21.08,2.23.05,4.6.29,6.95.42,4.18,2.56,7.39,5.94,10.02Z"/><path class="cls-11" d="M387.83,353.34c.64-1.71.54-3.02.23-4.33-.55-2.31-1.26-4.57-2.19-6.75-.5-1.17-.81-2.24.34-3.21,1.09-.92,2.76-1,3.99-.05,1.14.88,2.15,1.92,2.75,3.27,2.72,6.09,4.35,12.45,4.47,19.14.04,2.04-.43,4.03-1.49,5.83-1.62,2.76-3.43,3.39-6.73,2.26-.92-2.75,1-5.98-1.15-8.85-1.03.9-.96,2.06-1.15,3.05-.86,4.39-2.41,8.52-5.31,11.94-6.72,7.91-15.06,12.13-25.71,10.68-4.2-.57-7.65-2.62-10.6-5.55-2.15-2.14-1.74-4.06,1.12-5.24,2.12-.87,4.41-1.16,6.65-1.6.85-.17,1.94-.07,2.15-1.34-.38-1.06-1.3-.96-2.12-.98-2.46-.06-4.89.14-7.29.79-3.18.87-4.57.19-6.28-2.68-1.08-1.8-1.56-3.76-1.68-5.79-.21-3.58,1.56-5.81,5.13-6.38,1.98-.32,4.01-.38,6.2-.57-.4-1.1-1.33-1.28-2.14-1.52-1.56-.45-3.19-.51-4.79-.31-2.35.29-3.86-.8-5-2.71-2.91-4.86-1.62-11.89,2.93-15.65,3.64-3.01,7.99-3.9,12.56-3.99.76-.02,1.52.1,2.28.12,2.02.04,3.86.48,5.18,2.18.14.18.42.27.64.39.07.03.17,0,.4-.02.82-.8.15-1.65-.15-2.43-.89-2.28-2.01-4.49-2.72-6.83-1.84-6.06-1.59-12.01,1.44-17.7,1.23-2.31,3.19-3.67,5.67-4.34,2.46-.67,4.3.12,5.52,2.4.72,1.35,1.18,2.79,1.32,4.34.45,4.8.61,9.62.68,14.44.05,3.59.42,7.09,2.36,10.25.89,1.46,1.99,2.7,3.21,3.89,2.89,2.83,5.93,5.57,7.43,9.51.5,1.32.63,2.8,1.82,4.33Z"/><path class="cls-13" d="M212.18,221.76c.76.37,1.51.74,2.29,1.06,3.44,1.44,6.96,2.65,10.57,3.59,3.95,1.03,7.92,1.97,11.87,3.03,12.76,3.43,25.49,6.9,38.62,8.7,10.12,1.39,20.26,2.6,30.47,2.96,14.08.5,28.11-.13,42.03-2.43,6.23-1.03,12.33-2.58,18.19-4.99,4.56-1.88,9.22-2.86,11.9-7.08,0,0,2.3-2.23,3.85-6.88,1.81-5.6,1.96-11.32,1.23-17.1-.57-4.49-2.03-8.73-3.61-12.97-1.43-3.83-3.81-6.74-6.98-9.17-2.77-2.13-5.76-3.91-8.8-5.62-2.16-1.21-4.13-2.68-5.87-4.44-3.19-3.21-5.05-6.94-4.92-11.58.06-2.46-.17-4.93-.69-7.34-1.38-6.38-4.98-10.78-11.37-12.73-4.81-1.46-9.68-1.74-14.61-.98-5.63.87-10.79,2.91-15.2,6.56-4.97,4.11-7.91,9.31-7.84,15.91.07,7.26,3.07,13.13,8.8,17.54,2.23,1.72,4.32,3.9,7.01,4.73.98.3,1.34.32,1.96.44.89.08,1.22.2,1.82.28,2.48.71,4.89,1.62,7.1,3,3.91,2.44,6.72,5.79,8.08,10.23,1.41,4.62-.14,9.1-4.06,11.93-1.57,1.14-3.33,1.9-5.16,2.52-4.89,1.65-9.94,2.31-15.06,2.44-3.72.1-7.45.02-11.18.02-3.25,0-6.48.3-9.66,1-2.17.48-4.34.94-6.52,1.4-6.09,1.31-11.92.79-17.46-2.27-2.1-1.16-4.31-2.1-6.53-3.02-6.24-2.59-12.54-2.92-18.99-.77-3.82,1.27-7.57,2.73-11.33,4.14-7.32,2.74-14.84,3.29-22.53,2.23-2.39-.33-4.73-.79-7.04-1.49-.71-.21-2.6-.12-1.84.52.46.38.11.53,1.09.97.64.29,1.48.88,2.18,1.06.58.16,1.35.13,1.7.5"/><path class="cls-13" d="M302.88,118.19c-.01-2.53.06-4.32.45-6.09,1.69-7.71,8.15-13.68,15.97-14.57,2.8-.32,5.35.43,7.42,2.48,3.29,3.24,5.4,7.05,5.45,11.77.05,4.56-1.79,8.14-5.81,10.47-1.35.78-2.74,1.5-4.1,2.25-3.06,1.68-5.51,4.02-7.42,6.94-1,1.53-1.62,3.21-2.04,4.97-.2.83-.45,1.62-1.03,2.27-1.02,1.16-2.13,1.24-3.3.24-.94-.81-1.47-1.88-1.93-3-1.08-2.62-1.71-5.37-2.33-8.12-.78-3.4-1.39-6.82-1.32-9.6Z"/><path class="cls-13" d="M293.12,176.44c-2.39.07-4.53-.74-6.34-2.2-5.02-4.07-8.74-9.08-10.27-15.45-.74-3.1-.46-6.2.86-9.16.39-.88.89-1.7,1.55-2.41,2.07-2.22,4.64-2.7,7.36-1.33,1.64.82,2.96,2.04,4.06,3.5,2.65,3.51,3.89,7.54,4.33,11.85.21,2.03.37,4.06.47,6.1.05.98.53,1.7,1.11,2.39.46.55.99,1.05,1.33,1.69.93,1.77.32,3.67-1.47,4.55-.95.47-1.97.47-2.99.48Z"/><path class="cls-13" d="M359.95,157.83c0-6.98,4.31-12.39,10.1-13.37,1.26-.21,2.42-.05,3.41.74,3.07,2.43,4.76,5.48,4.23,9.53-.39,2.93-2,4.94-4.53,6.3-.63.34-1.32.58-2,.81-2.58.86-4.74,2.29-6.37,4.49-.18.24-.36.49-.58.69-.81.72-1.69.65-2.3-.24-.27-.39-.44-.85-.58-1.31-.82-2.71-1.27-5.48-1.38-7.64Z"/><circle class="cls-10" cx="347.99" cy="179.72" r="1.4"/><circle class="cls-10" cx="319.9" cy="163.29" r="2.45"/><ellipse class="cls-10" cx="320.74" cy="144.03" rx="4.08" ry="1.98" transform="translate(-28.05 99.73) rotate(-16.94)"/><circle class="cls-10" cx="334" cy="167.14" r=".7"/><circle class="cls-10" cx="358.25" cy="182.76" r=".7"/><circle class="cls-10" cx="367.62" cy="148.29" r=".81"/><circle class="cls-10" cx="365.77" cy="149.15" r=".21"/><ellipse class="cls-10" cx="317.58" cy="99.61" rx="3.18" ry=".67" transform="translate(-14.71 80.49) rotate(-14.12)"/><circle class="cls-10" cx="313.55" cy="102.08" r=".67"/><circle class="cls-10" cx="315.25" cy="102.08" r=".18"/><ellipse class="cls-10" cx="280.2" cy="148.24" rx="1.79" ry=".61" transform="translate(-14.25 265.67) rotate(-49.62)"/><circle class="cls-10" cx="278.8" cy="150.94" r=".18"/><ellipse class="cls-10" cx="344.73" cy="225.07" rx="5.13" ry="3.15"/><ellipse class="cls-10" cx="299.67" cy="221.25" rx="7.69" ry="3.38" transform="translate(-36.74 61.31) rotate(-11.01)"/><circle class="cls-10" cx="314.42" cy="234.05" r="1.4"/><circle class="cls-10" cx="336.69" cy="218.78" r="1.52"/><ellipse class="cls-10" cx="362.91" cy="205.25" rx="7.46" ry="1.75"/><ellipse class="cls-10" cx="266.28" cy="228.22" rx="7.34" ry="2.1"/><circle class="cls-10" cx="280.73" cy="232.76" r="1.98"/><circle class="cls-10" cx="241.56" cy="217.61" r="2.45"/><ellipse class="cls-10" cx="369.91" cy="219.82" rx="6.29" ry="1.4"/><circle class="cls-10" cx="375.62" cy="199.42" r=".35"/><circle class="cls-10" cx="348.46" cy="203.97" r=".47"/><circle class="cls-10" cx="330.62" cy="229.73" r=".82"/><line class="cls-6" x1="422.32" y1="327.67" x2="481.04" y2="327.67"/><line class="cls-6" x1="496.14" y1="342.88" x2="425.77" y2="342.88"/><line class="cls-6" x1="418.01" y1="357.27" x2="475.06" y2="357.27"/><path class="cls-11" d="M407.79,231.46c-11.38,2.01-13.01,3.64-15.02,15.02-2.01-11.38-3.64-13.01-15.02-15.02,11.38-2.01,13.01-3.64,15.02-15.02,2.01,11.38,3.64,13.01,15.02,15.02Z"/><path class="cls-4" d="M407.79,231.46c-11.38,2.01-13.01,3.64-15.02,15.02-2.01-11.38-3.64-13.01-15.02-15.02,11.38-2.01,13.01-3.64,15.02-15.02,2.01,11.38,3.64,13.01,15.02,15.02Z"/><path class="cls-11" d="M384.99,406.52c-3.94.7-4.51,1.26-5.2,5.2-.7-3.94-1.26-4.51-5.2-5.2,3.94-.7,4.51-1.26,5.2-5.2.7,3.94,1.26,4.51,5.2,5.2Z"/><path class="cls-1" d="M384.99,406.52c-3.94.7-4.51,1.26-5.2,5.2-.7-3.94-1.26-4.51-5.2-5.2,3.94-.7,4.51-1.26,5.2-5.2.7,3.94,1.26,4.51,5.2,5.2Z"/><path class="cls-11" d="M161.34,351.82c-6.3,1.11-7.2,2.01-8.31,8.31-1.11-6.3-2.01-7.2-8.31-8.31,6.3-1.11,7.2-2.01,8.31-8.31,1.11,6.3,2.01,7.2,8.31,8.31Z"/><path class="cls-3" d="M161.34,351.82c-6.3,1.11-7.2,2.01-8.31,8.31-1.11-6.3-2.01-7.2-8.31-8.31,6.3-1.11,7.2-2.01,8.31-8.31,1.11,6.3,2.01,7.2,8.31,8.31Z"/><path class="cls-11" d="M180.66,168.09c-6.3,1.11-7.2,2.01-8.31,8.31-1.11-6.3-2.01-7.2-8.31-8.31,6.3-1.11,7.2-2.01,8.31-8.31,1.11,6.3,2.01,7.2,8.31,8.31Z"/><path class="cls-3" d="M180.66,168.09c-6.3,1.11-7.2,2.01-8.31,8.31-1.11-6.3-2.01-7.2-8.31-8.31,6.3-1.11,7.2-2.01,8.31-8.31,1.11,6.3,2.01,7.2,8.31,8.31Z"/><path class="cls-11" d="M409.16,179.35c-4.53.8-5.18,1.45-5.98,5.98-.8-4.53-1.45-5.18-5.98-5.98,4.53-.8,5.18-1.45,5.98-5.98.8,4.53,1.45,5.18,5.98,5.98Z"/><path class="cls-2" d="M409.16,179.35c-4.53.8-5.18,1.45-5.98,5.98-.8-4.53-1.45-5.18-5.98-5.98,4.53-.8,5.18-1.45,5.98-5.98.8,4.53,1.45,5.18,5.98,5.98Z"/><path class="cls-11" d="M200.33,312.34c-7.86,1.39-8.98,2.51-10.37,10.37-1.39-7.86-2.51-8.98-10.37-10.37,7.86-1.39,8.98-2.51,10.37-10.37,1.39,7.86,2.51,8.98,10.37,10.37Z"/><path class="cls-5" d="M200.33,312.34c-7.86,1.39-8.98,2.51-10.37,10.37-1.39-7.86-2.51-8.98-10.37-10.37,7.86-1.39,8.98-2.51,10.37-10.37,1.39,7.86,2.51,8.98,10.37,10.37Z"/><circle class="cls-7" cx="361.38" cy="404.99" r="1.41"/><circle class="cls-7" cx="161.96" cy="302.74" r="3.67"/><circle class="cls-7" cx="201.22" cy="171.4" r="1.13"/><circle class="cls-7" cx="276.64" cy="120.84" r="3.11"/><circle class="cls-7" cx="400.64" cy="200.78" r="2.82"/><circle class="cls-7" cx="421.26" cy="225.35" r="1.41"/><circle class="cls-7" cx="439.05" cy="300.77" r="2.26"/></svg>