<?xml version="1.0" encoding="UTF-8"?>
<svg id="Layer_1" xmlns="http://www.w3.org/2000/svg" version="1.1" viewBox="0 0 283.9 87.4">
  <!-- Generator: Adobe Illustrator 29.2.1, SVG Export Plug-In . SVG Version: 2.1.0 Build 116)  -->
  <defs>
    <style>
      .st0 {
        fill: #fff;
      }
    </style>
  </defs>
  <path class="st0" d="M27.9,14.7h-15V5.2h43.2v9.5h-15v25.3h-13.3V14.7h.1Z"/>
  <path class="st0" d="M72.2,40h-13.2V5.2h13.2v34.7h0Z"/>
  <path class="st0" d="M89.7,29.1v10.9h-13.3V5.2h28.9c12.8,0,16.5,5.1,16.5,11.5v.7c0,6.3-3.8,11.6-16.5,11.6h-15.7,0ZM89.7,20.4h14.1c3,0,4.4-1.3,4.4-3.2h0c0-2.1-1.3-3.3-4.4-3.3h-14.1v6.5Z"/>
  <path class="st0" d="M138.1,14.7h-15V5.2h43.2v9.5h-15v25.3h-13.3V14.7h.1Z"/>
  <path class="st0" d="M195.6,4.6c22.4,0,25.3,10.6,25.3,17.2v1.4c0,6.5-2.8,17.4-25.3,17.4h-2.1c-22.5,0-25.3-10.9-25.3-17.4v-1.4c0-6.6,2.8-17.2,25.3-17.2,0,0,2.1,0,2.1,0ZM194.5,13.9c-10.5,0-12.6,4.5-12.6,8.2v.6c0,3.6,2.4,8.5,12.6,8.5s12.6-4.8,12.6-8.4v-.7c0-3.7-2.3-8.2-12.6-8.2Z"/>
  <path class="st0" d="M237.1,29.1v10.9h-13.3V5.2h28.9c12.8,0,16.5,5.1,16.5,11.5v.7c0,6.3-3.8,11.6-16.5,11.6h-15.7,0ZM237.1,20.4h14.1c3,0,4.4-1.3,4.4-3.2h0c0-2.1-1.3-3.3-4.4-3.3h-14.1v6.5Z"/>
  <path class="st0" d="M29.4,80.3c-21.4,0-24.6-10.9-24.6-17.5v-1.4c0-6.6,2.9-17.2,24.6-17.2h1.8c21.1,0,24.1,9.6,24.2,14v.6h-13.8c-.2-.9-1.4-5.3-11.4-5.3s-11.6,4.2-11.6,8.1v.6c0,3.7,2.3,8.6,11.7,8.6s11.2-4.9,11.4-5.7h13.7v.7c0,4.6-3.2,14.3-24.2,14.3h-1.8v.2Z"/>
  <path class="st0" d="M85,44.3c22.4,0,25.3,10.6,25.3,17.2v1.4c0,6.5-2.8,17.4-25.3,17.4h-2.1c-22.5,0-25.3-10.9-25.3-17.4v-1.4c0-6.6,2.8-17.2,25.3-17.2h2.1ZM84,53.6c-10.5,0-12.6,4.5-12.6,8.2v.6c0,3.6,2.4,8.5,12.6,8.5s12.6-4.8,12.6-8.4v-.7c0-3.7-2.3-8.2-12.6-8.2Z"/>
  <path class="st0" d="M151,44.9v8.5h-24.6v4.3h24v8.5h-24v13.3h-13.1v-34.7h37.7Z"/>
  <path class="st0" d="M191.8,44.9v8.5h-24.6v4.3h24v8.5h-24v13.3h-13.1v-34.7h37.7Z"/>
  <path class="st0" d="M233.4,44.9v8.5h-25.3v4.3h24.8v8.4h-24.8v4.8h25.7v8.7h-38.8v-34.7s38.4,0,38.4,0Z"/>
  <path class="st0" d="M276,44.9v8.5h-25.3v4.3h24.8v8.4h-24.8v4.8h25.7v8.7h-38.8v-34.7s38.4,0,38.4,0Z"/>
</svg>